<svg width="31" height="31" viewBox="0 0 31 31" fill="none" xmlns="http://www.w3.org/2000/svg">
<path d="M15.5 0C6.938 0 0 6.938 0 15.5S6.938 31 15.5 31 31 24.062 31 15.5 24.062 0 15.5 0zm0 28.5C8.29 28.5 2.5 22.71 2.5 15.5S8.29 2.5 15.5 2.5 28.5 8.29 28.5 15.5 22.71 28.5 15.5 28.5zm7.5-19.5c-.828 0-1.5-.672-1.5-1.5s.672-1.5 1.5-1.5 1.5.672 1.5 1.5-.672 1.5-1.5 1.5zm-7.5 1.5c-3.313 0-6 2.687-6 6s2.687 6 6 6 6-2.687 6-6-2.687-6-6-6zm0 9.5c-1.933 0-3.5-1.567-3.5-3.5s1.567-3.5 3.5-3.5 3.5 1.567 3.5 3.5-1.567 3.5-3.5 3.5z" fill="white"/>
</svg>
